<?xml version="1.0" encoding="utf-8"?>
<!-- Generator: Adobe Illustrator 24.2.1, SVG Export Plug-In . SVG Version: 6.00 Build 0)  -->
<svg version="1.1" id="Capa_1" xmlns="http://www.w3.org/2000/svg" xmlns:xlink="http://www.w3.org/1999/xlink" x="0px" y="0px"
	 width="229.5px" height="76.2px" viewBox="0 0 229.5 76.2" style="enable-background:new 0 0 229.5 76.2;" xml:space="preserve">
<style type="text/css">
	.st0{fill:#FFFFFF;}
	.st1{fill:#F8176D;}
	.st2{fill:url(#Path_6_);}
</style>
<g id="Page-1">
	<g id="_x30_1---P---Home---dark-" transform="translate(-240.000000, -2847.000000)">
		<g id="footer" transform="translate(0.000000, 2748.000000)">
			<g id="_x30_0-logo" transform="translate(240.000000, 99.000000)">
				<path id="Shape" class="st0" d="M91.9,19.8c3.2-0.1,6.4,1.2,8.7,3.5c2.3,2.2,3.6,5.3,3.5,8.5c0.1,3.2-1.2,6.3-3.5,8.5
					c-2.3,2.3-5.4,3.5-8.7,3.5h-6.3v11.7h-7V19.8H91.9z M91.9,37.2c3,0,5.2-2.3,5.2-5.4s-2.2-5.4-5.2-5.4h-6.3v10.8H91.9z"/>
				<path id="Path" class="st0" d="M122.6,30h6.6v25.5h-6.6v-2.9c-1.6,2.4-4.1,3.6-7.6,3.6c-2.8,0-5.1-0.9-6.9-2.8s-2.7-4.4-2.7-7.8
					V30h6.6v14.8c0,3.4,2,5.2,5,5.2c3.4,0,5.6-2.1,5.6-6.3L122.6,30z"/>
				<polygon id="Path_1_" class="st0" points="140.6,49.3 151.9,49.3 151.9,55.5 131.8,55.5 131.8,51.1 142.6,36.2 132.3,36.2 
					132.3,30 151.4,30 151.4,34.4 				"/>
				<polygon id="Path_2_" class="st0" points="161.7,49.3 173,49.3 173,55.5 152.8,55.5 152.8,51.1 163.6,36.2 153.4,36.2 153.4,30 
					172.5,30 172.5,34.4 				"/>
				<polygon id="Path_3_" class="st0" points="175.3,55.5 175.3,18.3 181.8,18.3 181.8,55.5 				"/>
				<path id="Shape_1_" class="st0" d="M190.8,45.5c0.9,3.2,3.3,4.8,7.2,4.8c2.5,0,4.4-0.9,5.7-2.5l5.3,3.1
					c-2.5,3.6-6.2,5.4-11.1,5.4c-4.2,0-7.6-1.3-10.1-3.8c-2.5-2.5-3.8-5.8-3.8-9.6s1.3-7,3.8-9.6c2.5-2.5,5.8-3.9,9.7-3.9
					c3.7,0,6.8,1.3,9.2,3.9c2.4,2.6,3.6,5.8,3.6,9.6c0,0.9-0.1,1.8-0.3,2.7L190.8,45.5z M203.7,40.4c-0.8-3.5-3.3-5.1-6.3-5.1
					c-3.5,0-5.9,1.9-6.7,5.1H203.7z"/>
				<path id="Path_4_" class="st1" d="M211.1,54.9c-1.7-1.7-1.7-4.4,0-6.1c1.7-1.7,4.4-1.7,6.1,0c1.7,1.7,1.7,4.4,0,6.1
					C215.5,56.6,212.8,56.6,211.1,54.9L211.1,54.9z"/>
				
					<linearGradient id="Path_6_" gradientUnits="userSpaceOnUse" x1="22.8454" y1="95.7845" x2="24.013" y2="95.7845" gradientTransform="matrix(35.9803 0 0 -36 -804.5463 3485.0386)">
					<stop  offset="0" style="stop-color:#FFA439"/>
					<stop  offset="1" style="stop-color:#FA3066"/>
				</linearGradient>
				<path id="Path_5_" class="st2" d="M62.7,34.9h3.7v-9.5c0-3.3-2.7-5.9-5.9-5.9H51v-3.6c0-4.1-3.3-7.4-7.4-7.4l0,0
					c-4.1,0-7.4,3.3-7.4,7.4v3.6h-9.5c-3.3,0-5.9,2.7-5.9,5.9v9.5h-3.6c-4.1,0-7.4,3.3-7.4,7.4l0,0c0,4.1,3.3,7.4,7.4,7.4h3.6v9.5
					c0,3.3,2.7,5.9,5.9,5.9h9.6v-3.5c0-4.1,3.3-7.4,7.4-7.4l0,0c4.1,0,7.4,3.3,7.4,7.4v3.5h9.4c3.3,0,5.9-2.7,5.9-5.9v-9.5h-3.7
					c-4.1,0-7.4-3.3-7.4-7.4l0,0C55.3,38.2,58.6,34.9,62.7,34.9z"/>
			</g>
		</g>
	</g>
</g>
</svg>
